<svg xmlns="http://www.w3.org/2000/svg" viewBox="0 0 800 800" role="img" aria-label="Illustration of a brownie"><!-- PLACEHOLDER ART: replace with real DGAP photography --><defs>
<radialGradient id="bg" cx="50%" cy="42%" r="70%"><stop offset="0" stop-color="#fff8f0"/><stop offset="1" stop-color="#ead8c5"/></radialGradient>
<linearGradient id="top" x1="0" y1="0" x2="1" y2="1"><stop offset="0" stop-color="#4a2a1b"/><stop offset=".55" stop-color="#2b160f"/><stop offset="1" stop-color="#1a0d09"/></linearGradient>
<linearGradient id="side" x1="0" y1="0" x2="0" y2="1"><stop offset="0" stop-color="#3a1d12"/><stop offset="1" stop-color="#160b08"/></linearGradient>
<linearGradient id="sheen" x1="0" y1="0" x2="1" y2="1"><stop offset="0" stop-color="#fff" stop-opacity=".22"/><stop offset=".5" stop-color="#fff" stop-opacity="0"/></linearGradient>
<filter id="blur"><feGaussianBlur stdDeviation="14"/></filter></defs><rect width="800" height="800" fill="url(#bg)"/><ellipse cx="400" cy="610" rx="260" ry="46" fill="#2b160f" opacity=".28" filter="url(#blur)"/>
<path d="M150 380 L400 470 L400 610 L150 520 Z" fill="url(#side)"/><path d="M650 380 L400 470 L400 610 L650 520 Z" fill="#1f0f0a"/>
<path d="M150 440 L400 530 L650 440" fill="none" stroke="#5a331f" stroke-width="3" opacity=".55"/>
<polygon points="150,380 400,290 650,380 400,470" fill="url(#top)" stroke="#5a331f" stroke-width="2" stroke-linejoin="round"/>
<polygon points="150,380 400,290 650,380 400,470" fill="url(#sheen)"/><path d="M225.0,389.0 C 350.0,398.0 300.0,344.0 450.0,362.0 S 450.0,326.0 537.5,348.5" fill="none" stroke="#c4722a" stroke-width="14" stroke-linecap="round" opacity=".92"/><polygon points="305.0,363.8 360.0,344.0 420.0,365.6 365.0,385.4" fill="#d9a766" stroke="#9a6a2e" stroke-width="2" stroke-linejoin="round" /><g stroke="#9a6a2e" stroke-width="2" opacity=".7"><path d="M332.5,361.1 L372.5,375.5 M352.5,353.9 L392.5,368.3"/></g><ellipse cx="384.9556673015261" cy="442.9765456973466" rx="4" ry="2.2" fill="#e6bd84" opacity="0.9"/><ellipse cx="304.9597539775817" cy="374.6178548979656" rx="4" ry="2.2" fill="#e6bd84" opacity="0.9"/><ellipse cx="449.79614357454517" cy="366.54870514094307" rx="4" ry="2.2" fill="#e6bd84" opacity="0.9"/><ellipse cx="415.4594130001308" cy="408.91546419305513" rx="4" ry="2.2" fill="#e6bd84" opacity="0.9"/><ellipse cx="456.60577136399496" cy="365.48383946189836" rx="4" ry="2.2" fill="#e6bd84" opacity="0.9"/><ellipse cx="460.8815379118927" cy="376.6757642439919" rx="4" ry="2.2" fill="#e6bd84" opacity="0.9"/><ellipse cx="411.16481733096987" cy="340.6869188019479" rx="4" ry="2.2" fill="#e6bd84" opacity="0.9"/><ellipse cx="415.60523174498474" cy="402.82302170955717" rx="4" ry="2.2" fill="#e6bd84" opacity="0.9"/><ellipse cx="352.8672684835583" cy="335.93956646171375" rx="4" ry="2.2" fill="#e6bd84" opacity="0.9"/></svg>