<svg xmlns="http://www.w3.org/2000/svg" viewBox="0 0 800 800" role="img" aria-label="Illustration of a brownie"><!-- PLACEHOLDER ART: replace with real DGAP photography --><defs>
<radialGradient id="bg" cx="50%" cy="42%" r="70%"><stop offset="0" stop-color="#fff8f0"/><stop offset="1" stop-color="#ead8c5"/></radialGradient>
<linearGradient id="top" x1="0" y1="0" x2="1" y2="1"><stop offset="0" stop-color="#4a2a1b"/><stop offset=".55" stop-color="#2b160f"/><stop offset="1" stop-color="#1a0d09"/></linearGradient>
<linearGradient id="side" x1="0" y1="0" x2="0" y2="1"><stop offset="0" stop-color="#3a1d12"/><stop offset="1" stop-color="#160b08"/></linearGradient>
<linearGradient id="sheen" x1="0" y1="0" x2="1" y2="1"><stop offset="0" stop-color="#fff" stop-opacity=".22"/><stop offset=".5" stop-color="#fff" stop-opacity="0"/></linearGradient>
<filter id="blur"><feGaussianBlur stdDeviation="14"/></filter></defs><rect width="800" height="800" fill="url(#bg)"/><ellipse cx="400" cy="610" rx="260" ry="46" fill="#2b160f" opacity=".28" filter="url(#blur)"/>
<path d="M150 380 L400 470 L400 610 L150 520 Z" fill="url(#side)"/><path d="M650 380 L400 470 L400 610 L650 520 Z" fill="#1f0f0a"/>
<path d="M150 440 L400 530 L650 440" fill="none" stroke="#5a331f" stroke-width="3" opacity=".55"/>
<polygon points="150,380 400,290 650,380 400,470" fill="url(#top)" stroke="#5a331f" stroke-width="2" stroke-linejoin="round"/>
<polygon points="150,380 400,290 650,380 400,470" fill="url(#sheen)"/><g transform="translate(262.5 384.5) scale(1)"><path d="M-22 4 q4 -16 22 -14 q20 -2 24 12 q-6 14 -24 12 q-20 2 -22 -10z" fill="#c8985a" stroke="#8a5e2c" stroke-width="2"/><path d="M-10 2 q10 -6 22 0 M-8 10 q10 4 20 -2" fill="none" stroke="#8a5e2c" stroke-width="2" opacity=".7"/></g><g transform="translate(325 353) scale(1.15)"><path d="M-22 4 q4 -16 22 -14 q20 -2 24 12 q-6 14 -24 12 q-20 2 -22 -10z" fill="#c8985a" stroke="#8a5e2c" stroke-width="2"/><path d="M-10 2 q10 -6 22 0 M-8 10 q10 4 20 -2" fill="none" stroke="#8a5e2c" stroke-width="2" opacity=".7"/></g><g transform="translate(445 363.8) scale(1)"><path d="M-22 4 q4 -16 22 -14 q20 -2 24 12 q-6 14 -24 12 q-20 2 -22 -10z" fill="#c8985a" stroke="#8a5e2c" stroke-width="2"/><path d="M-10 2 q10 -6 22 0 M-8 10 q10 4 20 -2" fill="none" stroke="#8a5e2c" stroke-width="2" opacity=".7"/></g><g transform="translate(387.5 402.5) scale(1.1)"><path d="M-22 4 q4 -16 22 -14 q20 -2 24 12 q-6 14 -24 12 q-20 2 -22 -10z" fill="#c8985a" stroke="#8a5e2c" stroke-width="2"/><path d="M-10 2 q10 -6 22 0 M-8 10 q10 4 20 -2" fill="none" stroke="#8a5e2c" stroke-width="2" opacity=".7"/></g><g transform="translate(467.5 395.3) scale(0.9)"><path d="M-22 4 q4 -16 22 -14 q20 -2 24 12 q-6 14 -24 12 q-20 2 -22 -10z" fill="#c8985a" stroke="#8a5e2c" stroke-width="2"/><path d="M-10 2 q10 -6 22 0 M-8 10 q10 4 20 -2" fill="none" stroke="#8a5e2c" stroke-width="2" opacity=".7"/></g><g transform="translate(337.5 420.5) scale(0.9)"><path d="M-22 4 q4 -16 22 -14 q20 -2 24 12 q-6 14 -24 12 q-20 2 -22 -10z" fill="#c8985a" stroke="#8a5e2c" stroke-width="2"/><path d="M-10 2 q10 -6 22 0 M-8 10 q10 4 20 -2" fill="none" stroke="#8a5e2c" stroke-width="2" opacity=".7"/></g></svg>